<?xml version="1.0" standalone="no"?>
<!DOCTYPE svg PUBLIC "-//W3C//DTD SVG 20010904//EN"
 "http://www.w3.org/TR/2001/REC-SVG-20010904/DTD/svg10.dtd">
<svg version="1.0" xmlns="http://www.w3.org/2000/svg"
 width="570.000000pt" height="570.000000pt" viewBox="0 0 570.000000 570.000000"
 preserveAspectRatio="xMidYMid meet">

<g transform="translate(0.000000,570.000000) scale(0.100000,-0.100000)"
fill="#000000" stroke="none">
<path d="M3731 4919 c-60 -12 -197 -57 -246 -82 -38 -19 -151 -91 -188 -121
-21 -16 -50 -96 -67 -184 -14 -69 -22 -77 -90 -87 -25 -4 -56 -16 -70 -29 -42
-37 -104 -82 -125 -91 -15 -7 -4 -10 45 -15 82 -9 128 -28 163 -70 46 -54 66
-103 83 -206 16 -98 16 -99 -6 -158 -24 -64 -78 -123 -135 -150 -81 -39 -224
-43 -316 -11 -35 13 -43 13 -63 -1 -22 -14 -63 -16 -251 -12 -11 0 -45 -5 -75
-11 -66 -14 -147 -6 -188 19 -24 15 -30 26 -35 71 -4 30 -7 82 -7 117 0 34 -4
62 -9 62 -4 0 -20 -9 -35 -21 -25 -20 -26 -24 -26 -128 0 -103 -1 -109 -26
-132 -24 -23 -33 -24 -142 -24 -64 0 -129 3 -143 7 -23 7 -36 -2 -120 -85 -57
-56 -110 -119 -134 -160 -22 -37 -55 -86 -73 -109 -18 -23 -42 -58 -51 -77
-24 -46 -79 -208 -86 -252 -3 -19 -9 -45 -14 -59 -5 -14 -24 -86 -41 -160 -54
-224 -78 -310 -98 -343 -28 -50 -74 -61 -235 -59 -118 1 -147 -2 -195 -20 -99
-36 -152 -90 -136 -140 9 -31 70 -50 169 -55 58 -2 97 -9 110 -18 55 -41 103
-70 147 -88 l48 -20 33 26 c19 14 64 36 101 48 60 19 80 20 174 14 238 -15
349 -66 413 -187 17 -34 23 -38 59 -38 21 0 49 -4 62 -9 16 -6 43 -4 78 5 30
8 80 14 111 14 l57 0 1 86 c1 59 7 96 18 118 10 17 16 34 16 37 -1 3 46 7 105
8 59 1 115 4 125 7 14 4 17 1 15 -12 -2 -11 3 -19 12 -19 12 0 16 -21 18 -110
2 -60 5 -111 5 -112 6 -6 175 -6 238 0 77 7 160 -7 220 -37 22 -11 29 -10 59
11 70 47 120 56 288 51 l154 -6 29 29 c30 29 52 34 135 29 27 -1 35 5 63 48
30 47 169 172 191 172 31 0 142 -172 230 -356 25 -53 42 -76 67 -89 18 -10 33
-21 33 -25 0 -3 21 -29 48 -57 l47 -51 83 -6 c73 -7 86 -5 116 13 46 29 86 84
86 118 0 20 -11 40 -36 64 -40 38 -62 82 -93 184 -46 155 -68 346 -44 377 6 7
13 28 17 47 7 40 109 143 132 134 8 -3 17 2 20 11 3 9 12 16 18 16 7 0 24 21
38 48 l25 47 82 7 c69 6 91 12 133 39 52 33 87 89 88 137 0 20 -3 22 -40 16
-50 -8 -90 2 -90 23 0 9 11 31 25 48 13 18 31 50 39 71 32 86 47 131 56 170 5
22 31 67 56 100 69 87 97 156 98 234 1 61 -2 69 -39 121 -40 55 -91 104 -172
163 -22 17 -64 61 -94 99 -30 38 -64 77 -76 87 -13 10 -23 20 -23 23 0 3 42
28 93 57 50 29 121 76 157 106 147 119 184 181 185 302 0 90 -12 103 -112 123
-91 18 -468 18 -639 0 -164 -17 -171 -14 -233 90 -68 112 -150 218 -182 234
-31 17 -145 19 -218 4z m190 -20 c19 -7 42 -20 52 -30 28 -30 97 -131 97 -144
0 -7 -20 -13 -52 -14 -116 -4 -270 -39 -445 -101 -46 -16 -83 -26 -83 -21 0 5
-3 17 -7 27 -5 14 -3 16 12 11 16 -7 17 -6 1 18 -12 18 -12 23 -3 19 10 -4 13
4 12 28 -1 19 5 40 15 50 9 10 17 33 18 50 1 40 27 61 107 87 92 31 217 39
276 20z m95 -246 c-3 -21 -7 -55 -8 -75 -1 -27 -7 -40 -21 -44 -10 -3 -20 -4
-23 -2 -2 3 0 33 4 68 l9 62 -41 -6 c-50 -7 -88 -14 -141 -26 -53 -12 -61 -12
-48 1 9 9 206 52 261 58 10 1 12 -9 8 -36z m-317 -80 c-10 -31 -19 -66 -19
-78 0 -13 -6 -25 -13 -28 -10 -4 -14 7 -15 37 -3 69 10 109 38 117 14 4 26 7
27 8 1 1 -7 -24 -18 -56z m1127 -2 c-3 -4 7 -14 22 -22 33 -17 67 -45 154
-128 73 -69 72 -68 59 -90 -8 -12 -23 0 -74 55 -36 39 -84 83 -106 99 l-42 28
-97 -44 c-53 -24 -131 -63 -172 -86 -41 -24 -81 -43 -89 -43 -8 0 -72 25 -142
55 -70 30 -137 55 -149 55 -22 0 -127 -81 -209 -161 l-43 -42 -147 37 c-146
38 -163 45 -167 69 -2 17 53 9 186 -26 57 -15 101 -21 110 -16 8 5 35 26 60
48 25 23 48 41 51 41 3 0 23 16 45 36 59 54 88 64 140 48 56 -17 226 -84 240
-96 8 -6 73 22 180 76 l169 85 -50 2 c-27 1 -89 3 -137 3 -47 1 -90 5 -95 10
-4 5 -3 6 4 2 6 -3 14 -3 16 1 3 5 69 9 146 10 78 1 139 -1 137 -6z m105 -6
c5 4 9 1 9 -5 0 -6 5 -8 10 -5 6 3 10 1 10 -5 0 -7 -7 -10 -15 -6 -8 3 -15 0
-15 -7 0 -8 -3 -8 -9 2 -5 8 -14 10 -21 6 -9 -6 -11 -4 -5 4 5 9 1 12 -11 11
-30 -4 -44 -1 -44 9 0 5 17 5 41 0 22 -5 44 -7 50 -4z m-461 -11 c0 -8 -4 -12
-10 -9 -5 3 -10 10 -10 16 0 5 5 9 10 9 6 0 10 -7 10 -16z m40 7 c0 -6 -5 -13
-10 -16 -6 -4 0 -15 15 -27 30 -23 21 -52 -21 -62 -50 -13 -74 39 -31 69 12 8
23 20 23 25 3 18 4 20 14 20 6 0 10 -4 10 -9z m-90 -5 c0 -3 -4 -8 -10 -11 -5
-3 -10 -1 -10 4 0 6 5 11 10 11 6 0 10 -2 10 -4z m-57 -13 c-7 -2 -19 -2 -25
0 -7 3 -2 5 12 5 14 0 19 -2 13 -5z m679 -3 c21 -6 42 -19 48 -30 15 -27 13
-83 -2 -77 -7 2 -13 18 -13 34 0 27 -3 30 -17 22 -14 -7 -18 -6 -18 6 0 9 -12
18 -29 21 -33 7 -51 34 -23 34 9 0 34 -5 54 -10z m-1113 -138 c13 -25 -5 -52
-34 -52 -18 0 -26 7 -31 24 -3 14 -3 30 1 35 10 17 53 13 64 -7z m911 -132
c99 -22 114 -56 47 -107 -99 -74 -227 -123 -247 -94 -5 8 -44 30 -100 57 -58
27 -179 29 -325 5 -283 -47 -519 -112 -744 -205 -73 -31 -135 -56 -137 -56 -8
0 0 65 8 76 5 7 8 16 7 20 -4 25 8 35 84 67 254 109 704 225 967 251 82 7 384
-2 440 -14z m-1330 -54 c0 -2 -14 -19 -31 -37 -30 -33 -30 -33 -13 -4 20 32
44 55 44 41z m1114 -218 c39 -34 79 -70 89 -80 9 -10 68 -60 131 -113 97 -81
166 -157 166 -181 0 -4 -26 20 -57 53 -32 33 -70 68 -86 77 -15 9 -57 44 -94
77 -70 63 -112 90 -153 96 -36 6 -42 6 -71 0 -21 -4 -29 1 -43 24 -13 23 -14
29 -4 29 8 0 19 -5 26 -12 9 -9 15 -8 28 8 8 10 13 14 10 8 -3 -6 1 -11 8 -11
9 0 7 10 -8 33 -12 18 -26 31 -33 29 -7 -2 -10 2 -6 11 9 23 22 17 97 -48z
m-150 34 c3 -5 -1 -9 -9 -9 -8 0 -12 4 -9 9 3 4 7 8 9 8 2 0 6 -4 9 -8z m-507
-160 c26 -31 58 -67 71 -80 32 -33 20 -39 -19 -11 -18 13 -29 18 -25 11 5 -8
0 -12 -13 -12 -18 0 -19 3 -11 25 7 19 6 23 -5 18 -8 -3 -12 -10 -8 -17 3 -6
0 -6 -8 2 -7 7 -14 22 -15 35 -2 30 -14 57 -26 57 -9 0 -38 25 -38 33 0 2 11
2 25 0 14 -3 45 -30 72 -61z m-168 23 c16 -17 22 -33 19 -50 -3 -14 0 -26 8
-29 8 -3 14 -10 14 -16 0 -6 -6 -8 -12 -4 -10 6 -10 4 -2 -7 6 -8 14 -26 18
-41 4 -20 11 -25 26 -21 12 3 20 0 20 -6 0 -7 4 -9 10 -6 5 3 27 -3 49 -14 22
-10 64 -24 93 -31 29 -7 67 -19 83 -28 35 -17 67 -51 60 -62 -3 -5 -1 -10 5
-12 6 -2 14 -23 18 -48 5 -26 13 -44 20 -42 21 4 15 -77 -5 -85 -23 -9 -44
-29 -37 -36 4 -3 -3 -16 -15 -28 -12 -13 -21 -28 -21 -34 0 -7 -11 -21 -25
-31 -17 -13 -23 -25 -19 -38 5 -15 3 -18 -10 -13 -9 4 -16 2 -16 -2 0 -5 5
-11 11 -13 9 -3 9 -10 0 -26 -7 -13 -17 -20 -23 -16 -7 5 -9 2 -5 -9 9 -24
-15 -17 -28 8 -9 17 -21 20 -95 21 -128 2 -188 20 -254 78 -16 14 -33 26 -37
26 -5 0 -11 11 -15 25 -3 14 -10 25 -15 25 -5 0 -9 7 -9 15 0 8 -4 15 -8 15
-5 0 -8 15 -7 34 0 20 -3 32 -9 29 -6 -4 -6 1 -2 13 5 10 9 24 9 30 0 6 13 19
28 30 35 23 55 64 37 75 -7 4 -15 4 -18 0 -9 -15 -35 -18 -55 -8 -22 12 -48
18 -83 19 -19 0 -21 2 -10 16 11 14 11 14 -6 5 -15 -8 -31 -7 -65 6 -25 9 -48
19 -51 22 -3 4 -15 9 -28 13 -12 4 -27 16 -33 27 -6 13 -16 18 -26 15 -14 -6
-14 -4 -2 11 12 15 12 16 -6 10 -45 -15 47 49 102 72 32 12 67 27 78 32 34 14
148 49 161 49 8 0 30 10 51 21 37 21 77 37 98 38 6 0 21 -11 34 -24z m851
-140 c7 -8 8 -15 2 -15 -5 0 -15 7 -22 15 -7 8 -8 15 -2 15 5 0 15 -7 22 -15z
m-414 -42 c-3 -7 0 -15 6 -19 7 -4 8 -3 4 4 -11 19 8 14 24 -6 18 -21 25 -52
12 -52 -5 0 -16 7 -23 16 -27 33 -85 62 -112 57 -16 -3 -27 -1 -27 6 0 7 21
10 60 9 44 -2 59 -6 56 -15z m494 -3 c10 -6 12 -12 5 -19 -7 -7 -14 -4 -23 9
-13 21 -6 25 18 10z m208 -36 c7 -8 18 -14 24 -14 5 0 8 -6 5 -14 -3 -8 -1
-17 6 -20 7 -2 4 -5 -5 -5 -28 -1 -33 0 -30 10 1 5 -1 8 -5 7 -16 -4 -53 14
-48 23 3 5 -2 6 -11 2 -13 -5 -15 -3 -9 8 6 11 5 12 -6 2 -16 -15 -33 -17 -24
-3 3 6 0 10 -8 10 -7 0 -14 6 -14 13 0 17 104 1 125 -19z m-78 -88 c56 -12 96
-69 99 -141 1 -15 3 -17 10 -6 7 11 11 9 21 -9 14 -27 -1 -84 -35 -136 -46
-68 -125 -244 -125 -277 0 -17 -7 -26 -21 -30 -12 -3 -18 -10 -14 -16 4 -7 -1
-9 -12 -5 -16 5 -16 4 1 -10 19 -15 19 -16 1 -16 -10 0 -33 18 -52 39 -18 22
-49 46 -68 52 -22 8 -35 20 -35 31 0 10 -4 18 -10 18 -20 0 -9 22 29 58 22 21
49 38 60 39 38 2 42 3 37 12 -3 5 2 15 11 22 11 10 14 10 9 2 -4 -7 -3 -19 1
-27 7 -12 10 -11 23 2 13 14 12 15 -3 9 -11 -4 -16 -3 -12 3 3 6 11 10 17 10
13 0 91 80 85 87 -3 2 -14 0 -25 -6 -40 -21 -46 -11 -9 14 43 29 61 62 73 125
11 63 7 82 -24 107 -22 19 -39 23 -92 23 -41 0 -60 4 -51 9 8 5 10 14 6 21 -6
10 3 11 41 6 27 -3 56 -8 64 -10z m-168 -21 l29 -12 -41 -18 c-42 -19 -90 -72
-90 -100 0 -31 29 -72 85 -119 31 -27 54 -51 51 -54 -3 -3 -14 2 -24 11 -10
10 -21 15 -23 12 -3 -2 -30 15 -60 39 -44 34 -58 53 -68 87 -7 24 -12 48 -11
53 1 5 -4 12 -10 16 -16 10 16 80 36 80 8 0 14 4 14 9 0 22 56 20 112 -4z
m106 -98 c2 -12 -3 -17 -17 -17 -12 0 -21 6 -21 13 0 31 32 34 38 4z m-2177
-61 c8 -103 21 -164 36 -170 8 -4 13 -13 10 -21 -4 -9 -1 -12 9 -8 7 3 14 1
14 -4 0 -6 15 -30 32 -54 18 -24 33 -46 33 -49 1 -3 9 -29 19 -58 10 -29 15
-56 12 -59 -3 -3 -1 -12 5 -20 7 -7 7 -13 2 -13 -5 0 -9 -22 -8 -50 1 -27 -2
-50 -7 -50 -4 0 -8 5 -8 12 0 6 -3 8 -7 5 -3 -4 2 -17 13 -29 10 -12 13 -18 6
-14 -7 4 -20 5 -29 2 -12 -5 -13 -9 -3 -21 11 -13 7 -13 -35 0 -26 7 -57 22
-69 33 -11 10 -45 35 -74 56 -46 32 -56 35 -70 24 -13 -11 -15 -11 -10 4 9 21
-2 31 -19 17 -9 -9 -13 -8 -13 0 0 6 -7 11 -15 11 -8 0 -24 9 -35 20 -12 12
-25 18 -30 15 -5 -3 -18 3 -29 14 -11 11 -22 17 -25 14 -2 -3 -17 7 -31 21
-14 15 -31 23 -38 19 -8 -5 -8 -8 1 -11 7 -2 10 -8 6 -13 -3 -5 3 -9 12 -9 16
0 16 -2 -2 -19 -13 -12 -21 -15 -26 -7 -5 8 -8 7 -8 -1 0 -7 -9 -13 -20 -13
-11 0 -20 6 -20 13 0 7 -8 13 -17 13 -10 1 -25 4 -34 8 -10 4 -23 1 -33 -9
-15 -15 -17 -15 -22 -1 -3 9 -1 23 6 31 7 8 9 15 5 15 -5 0 0 9 10 20 23 26
28 50 10 50 -8 0 -14 8 -14 18 0 9 -2 31 -5 47 -6 35 1 65 15 65 6 0 7 -5 3
-12 -5 -7 -2 -9 9 -5 9 3 18 -1 22 -11 5 -13 8 -14 15 -3 4 8 6 19 4 25 -3 7
6 12 18 13 13 1 18 -1 13 -5 -12 -8 -12 -52 -1 -71 5 -8 3 -17 -5 -22 -16 -10
-16 -10 34 -13 20 -2 37 1 37 6 0 5 5 6 10 3 6 -3 10 1 10 9 0 9 -6 16 -12 17
-10 0 -10 2 -1 5 7 3 10 11 7 19 -3 7 3 19 13 26 10 8 18 21 18 29 -2 21 24
50 40 44 7 -3 11 -14 8 -25 -3 -12 0 -19 8 -19 11 0 11 -2 -1 -10 -12 -8 -12
-10 2 -15 9 -4 14 -13 11 -21 -6 -17 8 -18 26 -1 11 10 13 10 7 0 -5 -9 2 -13
26 -13 19 0 28 -4 21 -8 -14 -9 -10 -48 4 -45 6 1 8 -10 5 -24 -4 -20 -2 -24
8 -18 10 6 12 4 7 -8 -4 -12 -2 -14 10 -10 13 5 15 2 10 -11 -4 -10 -3 -15 3
-11 6 3 10 1 10 -5 0 -6 5 -8 10 -5 13 8 13 21 -2 37 -7 7 -15 36 -17 63 -1
28 -6 54 -9 60 -9 15 -10 45 -1 51 5 3 11 -7 15 -21 3 -13 10 -22 15 -19 5 3
6 -2 3 -10 -4 -11 0 -16 11 -16 9 0 13 -5 10 -10 -4 -6 -11 -7 -17 -4 -7 4 -8
2 -4 -5 4 -6 12 -8 18 -5 7 4 8 2 4 -4 -4 -7 -1 -21 7 -33 19 -26 28 -5 14 32
-13 33 -2 63 19 55 12 -5 15 -2 9 11 -8 22 -25 165 -20 174 7 10 35 6 36 -5z
m-445 -102 c-3 -9 -6 -18 -6 -20 0 -2 -4 -4 -9 -4 -5 0 -7 9 -4 20 3 11 10 20
15 20 6 0 7 -7 4 -16z m-673 -29 c-3 -9 -8 -14 -10 -11 -3 3 -2 9 2 15 9 16
15 13 8 -4z m632 -13 c-8 -8 -25 10 -19 20 4 6 9 5 15 -3 4 -7 6 -15 4 -17z
m307 0 c2 -17 -1 -29 -7 -29 -6 0 -12 13 -13 29 -1 15 2 28 7 28 5 0 11 -13
13 -28z m2318 4 c0 -3 -4 -8 -10 -11 -5 -3 -10 -1 -10 4 0 6 5 11 10 11 6 0
10 -2 10 -4z m-3294 -63 c-64 -127 -112 -267 -151 -438 -54 -234 -73 -322 -80
-368 -8 -52 -17 -64 -34 -43 -8 10 -6 27 8 67 10 30 23 79 30 109 50 228 83
355 122 463 46 131 108 257 125 257 3 0 -6 -21 -20 -47z m761 -15 c1 -27 -1
-29 -7 -13 -11 27 -12 45 -2 45 5 0 9 -15 9 -32z m-275 13 c-11 -7 -11 -9 1
-14 8 -3 17 -20 21 -39 7 -32 8 -32 22 -13 13 18 14 16 11 -26 -4 -43 -3 -45
22 -43 14 1 27 2 29 3 7 3 12 0 10 -6 -2 -5 -6 -7 -10 -5 -5 1 -8 -7 -8 -18 0
-11 -6 -20 -12 -21 -10 0 -10 -2 0 -6 6 -2 12 -18 12 -33 0 -16 5 -32 12 -36
7 -5 9 -2 5 9 -4 11 -2 14 9 10 7 -3 14 0 14 6 0 6 -4 11 -10 11 -5 0 -10 5
-10 11 0 8 5 8 15 -1 8 -7 23 -9 32 -6 14 5 12 1 -4 -13 -12 -10 -19 -22 -15
-26 4 -5 1 -5 -6 -1 -7 4 -14 1 -18 -7 -12 -33 -106 12 -109 53 0 3 -10 19
-21 35 -12 17 -19 36 -16 44 3 10 -1 13 -14 9 -16 -4 -19 0 -18 21 1 14 3 28
4 31 1 3 1 18 0 34 -1 18 2 26 9 21 6 -3 9 -10 7 -14 -3 -4 -1 -13 5 -21 7
-12 9 -10 10 8 1 12 3 27 4 32 1 6 3 12 4 15 0 3 7 5 14 5 9 0 9 -2 -1 -9z
m2778 -7 c0 -8 -5 -12 -10 -9 -6 4 -8 11 -5 16 9 14 15 11 15 -7z m-395 -13
c3 -5 1 -12 -5 -16 -5 -3 -10 1 -10 9 0 18 6 21 15 7z m-2075 -11 c0 -5 -2
-10 -4 -10 -3 0 -8 5 -11 10 -3 6 -1 10 4 10 6 0 11 -4 11 -10z m1849 -78 c-3
-35 1 -44 18 -38 9 4 20 1 24 -6 8 -13 12 -14 47 -17 15 -1 15 -3 2 -12 -12
-9 -11 -10 5 -6 11 3 29 8 40 12 11 4 -2 -8 -29 -28 -43 -31 -106 -107 -106
-127 0 -4 -15 -15 -34 -25 -25 -14 -46 -17 -88 -12 -36 3 -60 1 -67 -6 -9 -9
-14 -8 -21 3 -15 24 -12 33 10 27 11 -3 18 -2 15 3 -3 4 4 19 15 32 11 14 16
28 12 32 -3 4 1 4 9 1 9 -3 23 3 35 16 10 13 14 19 8 16 -7 -4 -15 0 -18 9
-11 27 -7 37 9 24 13 -10 17 -7 30 24 18 42 11 67 -12 39 -13 -17 -13 -16 -3
5 6 13 16 20 22 16 7 -5 9 -2 5 8 -4 11 1 18 16 22 12 3 24 1 25 -4 2 -6 8
-10 14 -10 6 0 7 7 4 16 -3 9 -2 12 5 9 5 -4 9 -14 8 -23z m51 18 c0 -13 -11
-13 -30 0 -12 8 -11 10 8 10 12 0 22 -4 22 -10z m-2100 -9 c0 -13 -25 -20 -40
-11 -10 6 -8 9 6 13 31 8 34 7 34 -2z m2337 -27 c-9 -9 -28 6 -21 18 4 6 10 6
17 -1 6 -6 8 -13 4 -17z m-622 -26 c7 -7 -5 -8 -40 -3 -27 4 -75 11 -105 16
-40 5 -29 6 40 2 52 -2 100 -9 105 -15z m665 2 c-10 -6 -70 -1 -70 6 0 2 18 3
40 2 23 -1 36 -4 30 -8z m-2499 -33 c16 -21 16 -23 -1 -23 -10 0 -16 6 -13 13
3 7 0 13 -6 13 -6 0 -11 5 -11 10 0 17 14 11 31 -13z m139 2 c0 -5 -4 -9 -10
-9 -5 0 -10 7 -10 16 0 8 5 12 10 9 6 -3 10 -10 10 -16z m-373 -11 c-3 -8 -6
-5 -6 6 -1 11 2 17 5 13 3 -3 4 -12 1 -19z m2087 13 c51 -1 17 -16 -37 -16
-29 0 -74 -4 -102 -8 l-50 -7 40 20 c27 13 53 18 80 15 22 -2 53 -4 69 -4z
m93 -75 c-2 -6 -18 -14 -37 -17 -18 -4 -36 -13 -41 -21 -6 -8 -9 -9 -9 -1 0 8
-9 9 -32 2 -48 -13 -43 -5 14 24 50 26 112 33 105 13z m-2201 -19 c0 -7 2 -21
3 -32 1 -16 3 -17 10 -5 6 8 7 18 4 24 -3 5 -1 6 5 2 8 -5 10 -21 5 -48 -4
-31 -3 -39 6 -34 7 4 9 16 5 28 -5 17 -3 18 15 9 14 -8 21 -8 21 -1 0 5 7 10
15 10 8 0 15 -5 15 -11 0 -5 -4 -7 -10 -4 -6 3 -7 -1 -4 -9 3 -9 10 -14 14
-11 5 3 11 1 15 -5 8 -13 35 -13 35 1 0 5 -4 7 -10 4 -5 -3 -10 -1 -10 4 0 6
7 11 15 11 8 0 15 -5 15 -11 0 -5 4 -8 9 -4 5 3 16 -2 24 -10 12 -11 16 -12
20 -2 3 9 7 9 20 -1 9 -8 22 -11 29 -7 7 4 5 0 -6 -9 -19 -15 -14 -38 7 -31 7
2 27 6 45 9 25 4 32 2 32 -10 0 -12 6 -15 23 -11 19 5 20 4 6 -6 -20 -16 -38
-60 -21 -54 4 1 6 5 5 8 -1 4 8 15 20 25 13 12 18 13 12 4 -17 -24 -12 -55 8
-54 34 3 36 4 31 19 -4 8 -1 15 6 15 6 0 8 -4 5 -10 -3 -5 -1 -10 6 -10 8 0 9
-3 0 -13 -6 -8 -7 -18 -3 -22 4 -5 -1 -5 -10 -2 -10 3 -20 1 -24 -5 -4 -6 -3
-8 2 -5 16 10 32 -7 38 -38 2 -17 5 -32 5 -34 1 -3 7 4 15 14 13 18 14 17 10
-12 -2 -21 3 -36 17 -49 19 -17 20 -17 13 2 -5 15 -4 16 4 4 6 -8 9 -17 6 -21
-5 -9 43 -59 56 -59 6 0 10 -5 10 -11 0 -5 5 -7 11 -3 8 5 8 1 0 -14 -15 -28
-13 -41 2 -20 12 15 14 15 26 -4 7 -11 8 -17 3 -14 -6 3 -12 1 -14 -5 -7 -21
-47 8 -43 31 2 12 0 18 -6 15 -5 -4 -7 -11 -4 -16 4 -5 -3 -9 -14 -9 -13 0
-21 7 -21 18 0 12 -2 14 -8 4 -7 -10 -13 -6 -27 12 -14 19 -22 22 -32 14 -9
-8 -13 -7 -13 2 0 7 -7 10 -16 6 -10 -4 -13 -2 -8 6 5 7 0 9 -14 6 -12 -4 -22
-2 -22 2 0 5 -16 12 -35 16 -19 3 -35 11 -35 16 0 6 -7 7 -16 4 -8 -3 -13 -2
-10 3 5 7 -83 71 -97 71 -3 0 -7 -6 -10 -12 -2 -7 -3 -4 -1 7 2 15 -3 21 -19
22 -12 1 -25 -3 -29 -10 -6 -9 -8 -9 -8 1 0 6 -4 12 -10 12 -5 0 -7 -8 -3 -17
5 -15 3 -16 -7 -6 -11 10 -11 15 0 28 11 13 15 13 22 3 7 -10 9 -10 5 2 -2 8
-12 14 -21 14 -9 -1 -16 2 -16 7 0 5 -4 9 -10 9 -5 0 -9 -6 -7 -12 2 -14 -4
-14 -38 -3 -18 6 -17 4 4 -14 12 -12 28 -18 34 -14 5 3 7 1 3 -5 -3 -6 0 -17
8 -24 7 -8 16 -23 20 -33 7 -21 69 -55 100 -55 10 0 14 -5 10 -12 -4 -7 -3 -8
4 -4 7 4 18 1 26 -6 12 -11 12 -15 -1 -30 -10 -11 -12 -18 -5 -18 7 0 12 4 12
9 0 23 34 19 61 -8 16 -16 29 -24 29 -18 0 7 12 13 26 13 17 1 24 -2 20 -11
-2 -7 2 -16 10 -19 9 -3 12 -1 9 4 -3 6 -2 10 3 10 17 0 22 -13 10 -27 -10
-13 -7 -14 20 -10 18 3 30 2 27 -3 -8 -12 6 -41 16 -34 5 3 7 10 4 15 -10 15
8 10 34 -10 14 -10 30 -17 37 -14 7 2 15 0 19 -6 4 -7 -1 -9 -12 -5 -14 5 -14
2 4 -14 l22 -20 -22 -18 c-12 -10 -17 -12 -10 -5 6 7 9 20 6 27 -8 20 -23 17
-17 -3 4 -12 -3 -8 -20 10 -28 30 -38 34 -30 12 4 -8 1 -15 -6 -15 -6 0 -9 -4
-6 -9 3 -5 -1 -14 -8 -20 -11 -9 -16 -9 -22 0 -5 8 -13 4 -25 -12 -10 -13 -19
-18 -19 -11 0 9 -5 10 -18 3 -14 -7 -18 -6 -19 9 -1 14 4 17 27 14 32 -5 49
12 30 29 -9 9 -11 9 -7 1 4 -7 0 -14 -8 -18 -8 -3 -15 0 -15 7 0 8 -4 7 -11
-3 -9 -13 -10 -13 -6 0 2 8 10 15 18 15 8 0 13 8 11 17 -1 9 2 19 8 23 16 10
12 23 -7 20 -11 -1 -17 -9 -15 -21 2 -16 1 -17 -7 -4 -6 8 -11 11 -11 6 0 -4
-12 0 -27 10 -24 15 -26 15 -15 1 12 -15 11 -16 -17 -12 -21 2 -29 0 -25 -7 5
-7 2 -9 -8 -6 -9 4 -15 0 -15 -8 0 -12 5 -11 25 2 13 8 27 13 30 9 4 -3 1 -10
-6 -14 -10 -6 -10 -11 3 -21 13 -11 15 -10 10 2 -3 8 2 21 11 29 16 12 17 12
12 -2 -4 -9 -2 -21 3 -26 14 -14 -1 -45 -17 -39 -8 3 -14 0 -14 -6 0 -6 -8 -4
-18 5 -10 10 -22 14 -26 10 -4 -4 -4 0 0 10 5 15 9 15 23 5 14 -12 15 -11 2 5
-9 11 -18 14 -25 8 -14 -12 -34 9 -30 33 2 12 -2 16 -13 12 -9 -4 -13 -1 -10
6 2 7 10 12 16 10 7 -1 10 2 6 8 -3 6 -12 7 -18 3 -23 -14 -47 -13 -47 2 0 8
-9 24 -21 36 -11 11 -18 27 -15 34 3 8 0 17 -6 21 -7 4 -8 3 -4 -4 4 -7 2 -12
-3 -12 -6 0 -11 6 -11 13 0 19 -34 57 -51 57 -11 0 -11 2 1 10 13 8 12 10 -3
10 -10 0 -15 4 -12 10 3 5 0 7 -9 4 -9 -3 -21 6 -32 25 -10 16 -22 27 -28 24
-5 -4 -7 1 -3 11 6 14 3 17 -8 12 -9 -3 -13 -2 -10 4 3 6 1 10 -4 10 -6 0 -11
9 -11 20 0 21 20 29 20 8 0 -7 7 -4 16 7 13 17 16 18 24 5 9 -13 11 -13 21 0
9 12 10 11 5 -5 -6 -19 -5 -19 8 -1 8 10 19 15 25 11 6 -3 11 -1 11 4 0 6 -7
11 -16 11 -9 0 -12 5 -8 12 4 6 3 8 -3 5 -5 -3 -24 -9 -42 -12 -24 -4 -32 -2
-28 7 2 7 0 21 -5 31 -8 16 -7 18 10 13 16 -5 20 -3 17 11 -1 10 -7 17 -12 16
-11 -2 -13 10 -18 106 -2 40 -1 70 3 66 4 -3 7 -12 8 -18z m248 -13 c3 -8 0
-14 -6 -14 -6 0 -5 -7 3 -17 13 -16 12 -17 -3 -4 -10 7 -15 17 -12 23 3 5 0
16 -7 24 -10 12 -9 13 4 8 8 -3 18 -12 21 -20z m94 -66 c7 -7 12 -16 12 -22 0
-5 -3 -6 -7 -3 -3 4 -11 3 -17 -2 -7 -6 -11 -1 -12 15 -2 26 6 30 24 12z m62
-40 c0 -5 -5 -6 -11 -2 -6 3 -15 0 -20 -7 -8 -12 -8 -1 0 40 2 7 31 -22 31
-31z m685 2 c3 -6 -1 -7 -9 -4 -18 7 -21 14 -7 14 6 0 13 -4 16 -10z m-655
-24 c0 -2 -8 -10 -17 -17 -16 -13 -17 -12 -4 4 13 16 21 21 21 13z m620 -6 c0
-5 -2 -10 -4 -10 -3 0 -8 5 -11 10 -3 6 -1 10 4 10 6 0 11 -4 11 -10z m-605
-20 c-3 -5 -1 -10 6 -10 7 0 10 -3 6 -6 -9 -9 -28 6 -22 17 4 5 8 9 11 9 3 0
2 -4 -1 -10z m-472 -51 c-8 -8 -16 -8 -30 1 -16 10 -16 11 5 7 12 -3 22 0 22
6 0 6 3 7 7 4 4 -4 2 -12 -4 -18z m509 14 c-6 -2 -9 -10 -6 -15 4 -7 2 -8 -4
-4 -18 11 -14 26 6 25 10 0 12 -3 4 -6z m-78 -11 c3 -5 -1 -9 -9 -9 -8 0 -12
4 -9 9 3 4 7 8 9 8 2 0 6 -4 9 -8z m64 -67 c-3 -3 -9 2 -12 12 -6 14 -5 15 5
6 7 -7 10 -15 7 -18z m256 -11 c5 -14 4 -15 -9 -4 -17 14 -19 20 -6 20 5 0 12
-7 15 -16z m52 -34 c-2 -3 6 -14 17 -24 20 -19 20 -19 13 -1 -7 18 -6 18 16 0
13 -11 25 -21 28 -23 2 -2 -2 -7 -10 -12 -8 -6 -10 -10 -4 -10 5 0 20 9 32 21
23 21 42 18 42 -6 0 -8 9 -19 21 -25 16 -9 18 -14 8 -26 -8 -10 -8 -14 0 -14
6 0 11 -4 11 -9 0 -5 5 -22 12 -38 6 -15 11 -31 10 -35 -1 -5 3 -8 9 -8 5 0 7
-5 4 -10 -4 -6 -11 -8 -16 -5 -5 4 -9 1 -9 -6 0 -6 8 -9 20 -6 11 3 20 1 20
-4 0 -5 -16 -9 -35 -9 -19 0 -35 -4 -35 -9 0 -5 16 -7 36 -4 35 5 54 -6 54
-32 0 -5 -4 -4 -9 4 -5 8 -14 10 -21 6 -9 -5 -11 -4 -6 3 8 13 1 14 -31 6 -27
-7 -31 -24 -5 -19 10 2 25 -1 33 -7 12 -8 12 -9 -1 -5 -23 7 -42 -17 -27 -34
7 -7 1 -5 -12 6 -14 11 -21 14 -17 8 9 -16 -20 -18 -30 -2 -5 8 -10 6 -16 -5
-5 -9 -16 -16 -24 -16 -8 0 -13 -4 -9 -10 3 -5 13 -6 23 -3 9 3 14 3 10 -1 -3
-4 -17 -9 -31 -10 -18 -2 -24 1 -20 10 3 8 0 14 -7 14 -6 0 -8 5 -5 11 4 6 14
8 23 4 8 -3 23 3 34 15 11 11 24 17 31 13 7 -4 6 1 -2 11 -13 15 -13 19 0 27
8 5 11 9 7 10 -5 1 -12 3 -18 4 -5 1 -15 3 -21 4 -5 0 -8 5 -5 9 2 4 0 14 -6
22 -8 12 -9 12 -4 -2 7 -22 -11 -33 -29 -18 -18 15 -42 3 -26 -13 14 -14 14
-27 1 -27 -5 0 -10 6 -10 13 0 8 -11 27 -25 43 -14 16 -25 35 -25 42 0 7 -4
11 -9 8 -5 -3 -12 6 -15 19 -4 14 -11 23 -16 20 -6 -3 -10 5 -10 20 0 14 -6
28 -14 31 -8 3 -12 12 -9 20 3 8 0 14 -6 14 -5 0 -16 10 -22 23 -12 22 -12 22
9 4 11 -11 26 -16 31 -12 10 6 16 -8 12 -28 -1 -5 3 -6 9 -2 6 3 8 11 5 16 -7
11 20 41 29 32 3 -4 6 1 6 10 0 9 8 15 19 14 11 0 18 -4 17 -7z m-550 -45 c-3
-23 -12 -26 -13 -5 -1 11 2 20 7 20 4 0 7 -7 6 -15z m2461 -90 c-26 -23 -68
-53 -94 -67 -27 -14 -79 -42 -118 -63 -51 -27 -89 -40 -140 -46 -93 -12 -101
-13 -116 -25 -8 -5 -34 -21 -59 -34 -25 -13 -60 -34 -79 -47 -49 -33 -62 -28
-21 9 19 17 49 43 65 58 17 14 35 25 41 23 6 -2 24 3 40 12 16 8 30 11 32 6 3
-10 58 14 67 30 4 5 14 5 26 -2 16 -8 25 -7 40 6 11 11 27 15 41 12 25 -7 115
49 185 114 23 22 45 39 48 39 3 0 22 9 42 20 56 30 56 4 0 -45z m-706 12 c-10
-9 -11 -8 -5 6 3 10 9 15 12 12 3 -3 0 -11 -7 -18z m485 -49 c4 -7 4 -10 -1
-6 -4 4 -16 3 -26 -2 -12 -7 -20 -6 -25 2 -4 6 -3 8 2 5 6 -3 16 -2 24 4 19
11 18 11 26 -3z m-71 -18 c-3 -5 -12 -10 -18 -10 -7 0 -6 4 3 10 19 12 23 12
15 0z m-2484 -53 c-10 -9 -11 -8 -5 6 3 10 9 15 12 12 3 -3 0 -11 -7 -18z
m914 -8 c4 -6 13 -8 21 -5 7 3 20 -4 28 -16 13 -19 13 -22 -7 -39 -26 -21 -36
-17 -13 6 18 19 20 31 6 40 -6 4 -7 -1 -3 -11 5 -13 3 -16 -10 -11 -12 5 -17
1 -17 -13 0 -21 -15 -27 -25 -10 -3 6 -2 10 3 10 12 0 12 32 -1 48 -6 8 -6 12
1 12 6 0 14 -5 17 -11z m-579 -44 c-4 -24 -16 -30 -16 -7 0 12 4 22 9 22 5 0
8 -7 7 -15z m-1178 -11 c12 -4 22 -11 21 -18 -3 -27 3 -34 41 -40 23 -3 38
-11 35 -16 -3 -5 -11 -7 -18 -4 -7 2 -22 -5 -34 -16 -25 -23 -84 -27 -144 -8
-33 10 -39 15 -39 40 0 48 71 80 138 62z m1452 -16 c0 -14 -20 -48 -20 -35 0
5 -7 2 -15 -7 -19 -18 -9 -47 12 -39 11 5 14 3 9 -6 -5 -7 -14 -10 -21 -7 -8
3 -16 0 -19 -7 -3 -7 -3 -2 -1 9 4 14 0 24 -11 28 -15 6 -12 21 4 21 17 0 53
35 47 44 -3 6 -1 11 4 11 6 0 11 -6 11 -12z m520 -27 c0 -8 -1 -12 -3 -10 -1
2 -11 15 -22 28 l-20 24 23 -14 c12 -8 22 -20 22 -28z m-398 15 c3 2 11 -2 18
-11 8 -10 9 -15 1 -15 -6 0 -11 6 -12 13 0 9 -2 9 -6 -1 -2 -6 -9 -9 -15 -6
-5 4 -5 -3 2 -16 11 -20 10 -21 -9 -15 -20 6 -26 -2 -22 -27 2 -12 -17 -10
-24 2 -3 6 -1 10 4 10 6 0 11 5 11 11 0 6 -6 9 -14 6 -9 -4 -7 5 7 27 17 25
26 31 38 25 9 -5 19 -6 21 -3z m-1473 -13 c-9 -11 -15 -11 -28 -1 -9 7 -17 13
-18 14 -2 0 10 1 27 1 24 0 27 -3 19 -14z m1746 -32 c-3 -6 -11 -11 -16 -11
-5 0 -4 6 3 14 14 16 24 13 13 -3z m32 -3 c-3 -8 -6 -5 -6 6 -1 11 2 17 5 13
3 -3 4 -12 1 -19z m-437 2 c0 -5 -5 -10 -11 -10 -5 0 -7 5 -4 10 3 6 8 10 11
10 2 0 4 -4 4 -10z m197 -16 c8 3 11 1 8 -5 -4 -5 -1 -18 6 -27 8 -9 1 -6 -14
8 -23 20 -30 22 -37 10 -5 -8 -13 -11 -17 -6 -4 5 -3 11 4 13 7 2 9 12 5 21
-5 15 -4 15 12 -1 10 -10 25 -16 33 -13z m278 17 c3 -5 2 -12 -3 -15 -5 -3 -9
1 -9 9 0 17 3 19 12 6z m-435 -21 c8 -16 8 -20 -2 -18 -23 5 -39 38 -18 38 5
0 14 -9 20 -20z m314 -11 c-3 -5 -10 -7 -15 -3 -5 3 -7 10 -3 15 3 5 10 7 15
3 5 -3 7 -10 3 -15z m-1656 -1 c20 -2 14 -18 -8 -18 -11 0 -20 4 -20 10 0 5
-13 7 -30 4 -16 -4 -30 -2 -30 3 0 7 36 8 88 1z m1332 -28 c0 -5 -5 -10 -11
-10 -5 0 -7 5 -4 10 3 6 8 10 11 10 2 0 4 -4 4 -10z m153 -7 c-13 -2 -33 -2
-45 0 -13 2 -3 4 22 4 25 0 35 -2 23 -4z m86 -9 c4 3 8 0 8 -7 0 -7 -8 -13
-17 -13 -12 0 -15 6 -12 20 3 12 7 15 10 8 2 -7 7 -10 11 -8z m1167 -81 c-22
-42 -44 -69 -50 -62 -7 7 45 89 56 89 5 0 2 -12 -6 -27z"/>
<path d="M4585 3960 c-17 -6 -15 -8 10 -13 35 -6 40 -4 23 10 -7 6 -22 7 -33
3z"/>
<path d="M3815 3770 c6 -10 4 -12 -8 -7 -10 4 -17 2 -17 -4 0 -6 -7 -8 -16 -5
-14 6 -15 4 -4 -9 10 -12 15 -13 21 -4 4 7 14 9 24 6 9 -4 13 -12 9 -18 -4 -7
-3 -9 4 -6 12 8 5 44 -11 54 -6 4 -7 1 -2 -7z"/>
<path d="M3736 3733 c-6 -14 -5 -15 5 -6 7 7 10 15 7 18 -3 3 -9 -2 -12 -12z"/>
<path d="M3786 3698 c3 -5 10 -6 15 -3 13 9 11 12 -6 12 -8 0 -12 -4 -9 -9z"/>
<path d="M3970 3623 c-179 -13 -300 -67 -300 -133 0 -40 57 -147 105 -196 l42
-44 79 0 c104 0 148 13 178 53 35 47 62 217 43 272 -8 25 -58 56 -84 53 -10
-1 -38 -3 -63 -5z m-53 -79 c3 -9 -3 -25 -16 -37 -19 -19 -22 -20 -36 -6 -25
25 -8 51 38 58 4 0 10 -6 14 -15z"/>
<path d="M4180 3419 c0 -5 5 -7 10 -4 6 3 10 8 10 11 0 2 -4 4 -10 4 -5 0 -10
-5 -10 -11z"/>
<path d="M2235 3122 c-12 -8 -16 -42 -5 -42 4 0 10 11 12 25 3 14 5 25 4 25 0
0 -5 -4 -11 -8z"/>
<path d="M2126 3061 c-7 -11 22 -36 31 -28 3 4 -2 9 -11 13 -9 3 -13 10 -10
15 3 5 3 9 0 9 -3 0 -7 -4 -10 -9z"/>
<path d="M2105 3029 c-4 -6 -4 -13 -1 -16 3 -4 6 -1 6 6 0 7 5 9 12 5 7 -4 8
-3 4 4 -9 15 -13 15 -21 1z"/>
<path d="M2025 3040 c3 -5 8 -10 11 -10 2 0 4 5 4 10 0 6 -5 10 -11 10 -5 0
-7 -4 -4 -10z"/>
<path d="M4051 3076 c-8 -10 -8 -16 3 -25 11 -10 14 -7 12 14 -1 29 0 29 -15
11z"/>
<path d="M1690 2826 c0 -8 4 -17 9 -20 5 -4 7 3 4 14 -6 23 -13 26 -13 6z"/>
<path d="M1855 2830 c-3 -5 -1 -10 4 -10 6 0 11 5 11 10 0 6 -2 10 -4 10 -3 0
-8 -4 -11 -10z"/>
<path d="M1910 2809 c0 -5 5 -7 10 -4 6 3 10 8 10 11 0 2 -4 4 -10 4 -5 0 -10
-5 -10 -11z"/>
<path d="M1710 2786 c0 -2 7 -9 15 -16 9 -7 15 -8 15 -2 0 5 -7 12 -15 16 -8
3 -15 4 -15 2z"/>
<path d="M1700 2720 c0 -5 5 -10 10 -10 6 0 10 5 10 10 0 6 -4 10 -10 10 -5 0
-10 -4 -10 -10z"/>
<path d="M1918 2383 c6 -2 18 -2 25 0 6 3 1 5 -13 5 -14 0 -19 -2 -12 -5z"/>
<path d="M1965 2369 c-4 -6 -5 -12 -2 -15 2 -3 7 2 10 11 7 17 1 20 -8 4z"/>
<path d="M2040 2366 c0 -2 7 -7 16 -10 8 -3 12 -2 9 4 -6 10 -25 14 -25 6z"/>
<path d="M2114 2328 c-4 -5 -1 -14 7 -18 14 -9 29 -4 29 10 0 13 -29 20 -36 8z"/>
<path d="M2152 2297 c-6 -7 -7 -18 -3 -26 6 -9 11 -10 15 -2 4 6 2 11 -5 11
-8 0 -8 4 1 15 7 8 10 15 7 15 -2 0 -9 -6 -15 -13z"/>
<path d="M2600 2466 c0 -2 7 -7 16 -10 8 -3 12 -2 9 4 -6 10 -25 14 -25 6z"/>
<path d="M2522 2420 c0 -14 2 -19 5 -12 2 6 2 18 0 25 -3 6 -5 1 -5 -13z"/>
<path d="M2628 2419 c18 -19 14 -33 -5 -18 -16 13 -17 12 -4 -3 7 -10 17 -15
22 -12 15 9 10 31 -8 39 -15 5 -16 4 -5 -6z"/>
<path d="M2576 2398 c3 -5 10 -6 15 -3 13 9 11 12 -6 12 -8 0 -12 -4 -9 -9z"/>
<path d="M2286 2245 c-9 -26 -7 -32 5 -12 6 10 9 21 6 23 -2 3 -7 -2 -11 -11z"/>
<path d="M1534 4372 c-22 -14 -34 -51 -34 -101 0 -53 -8 -62 -31 -35 -35 42
-159 77 -272 75 -66 -1 -157 -24 -205 -53 -86 -52 -124 -198 -87 -338 11 -42
24 -64 55 -92 54 -48 116 -63 266 -63 118 0 122 1 192 35 l71 36 7 -53 c8 -67
19 -73 124 -73 74 0 83 2 104 25 23 25 24 25 37 5 10 -14 32 -23 72 -30 58 -9
179 -6 197 5 14 8 13 376 -1 412 -32 86 -130 133 -234 114 -28 -5 -51 -8 -52
-7 -1 1 -4 28 -6 61 -4 41 -10 63 -23 72 -19 14 -161 18 -180 5z m122 -53 c4
-6 6 -52 5 -101 -1 -50 1 -88 6 -86 79 40 114 51 158 51 68 1 108 -22 135 -79
20 -41 23 -62 23 -191 1 -163 -3 -173 -71 -173 -67 0 -71 8 -71 129 0 63 -5
119 -12 135 -11 23 -18 26 -64 26 -86 0 -96 -14 -102 -145 -3 -61 -10 -113
-16 -116 -9 -6 -68 -1 -75 6 -6 6 -2 476 4 516 6 36 9 39 40 39 18 0 36 -5 40
-11z m-291 -90 c52 -21 63 -30 82 -69 43 -87 25 -240 -34 -292 -74 -66 -301
-74 -394 -13 -55 35 -72 81 -67 179 4 92 25 145 68 176 76 54 236 63 345 19z"/>
<path d="M1191 4114 c-31 -39 -29 -117 4 -149 30 -31 82 -33 119 -4 23 18 26
28 26 80 0 75 -20 99 -84 99 -36 0 -48 -5 -65 -26z m101 -38 c11 -16 10 -44
-2 -67 -12 -21 -50 -25 -68 -7 -18 18 -15 75 6 87 19 11 53 4 64 -13z"/>
<path d="M2240 4262 l-25 -8 0 -246 c0 -136 4 -250 9 -255 4 -4 47 -10 94 -11
77 -3 90 -1 111 17 22 20 26 20 42 5 14 -13 37 -15 119 -12 99 3 110 7 123 42
2 5 25 -1 53 -15 43 -21 63 -24 159 -24 95 0 116 3 157 23 63 31 88 74 101
173 10 72 9 86 -12 149 -40 126 -93 161 -241 162 -96 0 -162 -21 -212 -69
l-26 -25 -16 31 c-9 17 -28 38 -41 47 -34 22 -117 25 -184 8 -36 -10 -57 -11
-61 -4 -8 13 -117 21 -150 12z m115 -69 l11 -31 24 19 c58 45 136 61 194 39
29 -11 51 -49 60 -105 5 -33 10 -251 7 -292 -1 -9 -21 -13 -65 -13 l-64 0 -3
113 c-3 87 -8 119 -22 140 -21 32 -63 36 -97 9 -21 -17 -22 -25 -21 -150 l2
-132 -55 0 c-40 0 -55 4 -60 16 -3 9 -6 105 -6 214 0 198 0 199 23 203 46 9
62 3 72 -30z m696 4 c47 -30 77 -97 85 -184 15 -158 -55 -231 -210 -221 -97 6
-155 34 -186 90 -20 36 -24 56 -23 125 1 120 33 170 133 206 8 3 49 6 91 6 63
1 82 -3 110 -22z"/>
<path d="M2901 4072 c-17 -13 -25 -32 -28 -69 -5 -45 -2 -55 20 -77 54 -53
107 -20 107 67 0 29 -6 61 -12 70 -21 26 -61 31 -87 9z m67 -95 c-2 -27 -7
-32 -28 -32 -20 0 -26 6 -28 28 -5 38 14 60 40 46 14 -8 18 -19 16 -42z"/>
<path d="M2250 2084 c-33 -13 -40 -37 -40 -144 l0 -107 -97 1 c-81 1 -106 -3
-145 -21 -42 -19 -49 -20 -56 -6 -7 11 -23 14 -70 11 l-61 -3 -28 58 c-29 61
-85 121 -131 138 -107 41 -341 55 -420 25 -135 -50 -202 -184 -203 -409 -1
-162 61 -275 183 -335 87 -43 153 -56 283 -56 98 -1 115 2 160 24 29 14 63 43
81 67 l32 42 4 -66 c6 -88 14 -93 145 -93 123 0 117 -8 126 151 11 178 28 204
142 216 l55 6 0 -79 c0 -223 6 -344 16 -354 13 -13 156 -16 176 -4 7 5 56 8
108 9 78 0 104 5 146 24 l51 24 29 -21 c25 -19 74 -28 157 -31 13 -1 17 -10
17 -43 1 -58 27 -107 76 -141 51 -36 86 -44 264 -59 163 -13 240 -6 328 32 58
25 107 87 118 149 12 73 12 73 56 66 96 -17 255 -5 332 24 40 16 114 89 125
124 18 57 24 202 11 256 -23 96 -113 169 -240 195 -66 13 -227 14 -303 1 l-49
-8 36 47 c45 59 48 102 10 116 -14 6 -55 10 -91 10 -62 0 -68 -2 -92 -30 -30
-35 -30 -35 -222 -25 -115 7 -143 5 -187 -9 -47 -16 -92 -54 -105 -88 -3 -9
-13 -5 -33 13 -59 54 -209 76 -322 47 -35 -9 -47 -9 -50 0 -2 8 -30 12 -78 12
l-74 0 0 109 c0 75 -4 112 -12 119 -15 12 -136 24 -158 16z m104 -125 c3 -39
4 -75 1 -80 -4 -5 -24 -9 -46 -9 l-39 0 0 80 0 80 39 0 38 0 7 -71z m-784 -4
c76 -31 104 -55 132 -109 22 -43 34 -130 24 -170 -6 -23 -11 -26 -50 -26 -24
0 -64 3 -88 6 -42 6 -46 9 -57 43 -17 59 -51 84 -120 89 -107 8 -151 -37 -151
-153 0 -119 41 -165 148 -165 59 0 95 24 112 76 8 23 17 34 26 30 7 -3 47 -8
89 -12 42 -4 77 -10 80 -13 8 -14 -23 -131 -44 -165 -52 -84 -119 -112 -246
-102 -170 12 -288 69 -333 160 -54 108 -54 271 1 389 60 127 120 158 302 153
93 -3 120 -7 175 -31z m2088 -90 c13 -12 -38 -73 -80 -93 l-46 -23 15 -37 c18
-44 13 -123 -12 -176 -21 -45 -70 -68 -160 -75 -79 -7 -95 -14 -95 -42 0 -39
32 -56 121 -62 98 -6 146 -24 188 -69 42 -44 55 -89 48 -158 -8 -77 -37 -124
-90 -146 -55 -23 -216 -30 -344 -15 -131 16 -171 27 -205 61 -49 50 -35 149
29 199 l27 22 -21 14 c-12 8 -27 31 -33 50 -10 31 -9 41 12 83 18 36 34 52 72
71 l48 25 -38 11 c-65 18 -93 78 -84 185 2 34 29 79 63 104 26 19 42 21 160
21 73 0 154 -3 181 -8 48 -7 50 -6 85 33 36 40 36 40 95 35 33 -3 61 -7 64
-10z m-1308 -64 c12 -23 12 -555 -1 -588 -7 -18 -14 -21 -40 -18 -17 2 -34 7
-37 10 -10 9 -8 588 1 603 13 19 65 15 77 -7z m500 -13 c61 -31 80 -69 89
-175 9 -103 6 -396 -4 -412 -7 -12 -140 -9 -153 3 -4 4 -9 93 -12 196 -5 207
-8 216 -65 221 -63 4 -95 -2 -119 -23 -26 -23 -26 -26 -34 -208 l-7 -185 -45
0 -45 0 -3 155 c-1 85 1 218 5 295 l8 140 38 3 c35 3 37 2 37 -27 0 -17 2 -31
4 -31 3 0 21 10 41 21 92 55 191 64 265 27z m-682 -14 c20 -6 22 -12 22 -69
l0 -63 -77 -7 c-158 -14 -174 -35 -182 -240 l-6 -140 -50 4 c-27 1 -52 5 -55
8 -7 7 -13 440 -6 467 4 17 13 23 36 24 28 1 30 -2 30 -34 0 -19 2 -34 4 -34
2 0 18 13 34 28 52 48 175 76 250 56z m-725 -40 c20 -6 47 -54 47 -84 0 -11 4
-20 9 -20 17 0 -41 -101 -64 -112 -32 -14 -91 -2 -115 24 -16 17 -20 36 -20
86 0 111 34 136 143 106z m2556 -23 c119 -31 175 -105 169 -223 l-3 -63 -70 1
c-38 1 -114 3 -167 5 -115 4 -124 -1 -108 -60 12 -46 33 -61 83 -61 37 0 87
39 87 68 0 12 11 14 68 9 37 -4 77 -7 90 -7 33 0 29 -47 -10 -106 -45 -68 -78
-78 -248 -78 -121 0 -140 2 -183 23 -71 35 -108 94 -115 182 -8 118 29 237 88
281 29 21 134 46 201 47 25 1 78 -8 118 -18z"/>
<path d="M3214 1712 c-20 -3 -44 -39 -44 -66 0 -34 65 -59 148 -58 55 2 72 15
72 59 0 29 -5 36 -32 47 -35 14 -110 24 -144 18z"/>
<path d="M3214 1167 c-3 -9 -4 -26 -2 -38 4 -28 48 -41 116 -37 41 3 48 7 56
31 14 39 -1 49 -88 55 -62 4 -77 2 -82 -11z"/>
<path d="M3860 1557 c-14 -7 -26 -22 -28 -33 -3 -24 19 -34 81 -34 32 0 37 3
37 24 0 41 -48 64 -90 43z"/>
</g>
</svg>
